Coordinates
version=1
nRows=14
nColumns=36
inDegrees=yes

Units are S.I. units (second, meters, Newtons, ...)
If the header above contains a line with 'inDegrees', this indicates whether rotational values are in degrees (yes) or radians (no).

endheader
time	pelvis_tilt	pelvis_list	pelvis_rotation	pelvis_tx	pelvis_ty	pelvis_tz	hip_flexion_r	hip_adduction_r	hip_rotation_r	knee_angle_r	knee_angle_r_beta	ankle_angle_r	subtalar_angle_r	mtp_angle_r	hip_flexion_l	hip_adduction_l	hip_rotation_l	knee_angle_l	knee_angle_l_beta	ankle_angle_l	subtalar_angle_l	mtp_angle_l	lumbar_extension	lumbar_bending	lumbar_rotation	arm_flex_r	arm_add_r	arm_rot_r	elbow_flex_r	pro_sup_r	arm_flex_l	arm_add_l	arm_rot_l	elbow_flex_l	pro_sup_l
      0.64000000	      1.90321617	      3.61420782	      0.48073597	      0.77767278	      0.92609255	     -0.24195095	     11.30111932	     -8.50647318	     -6.74738156	     74.80089966	      1.30552198	     -2.52703063	    -15.95452932	     -6.92697507	     22.02179884	      2.85911884	     -5.62083092	     32.64908420	      0.56983402	     12.70426773	     -3.63272470	     -6.92697507	     -9.25702157	    -19.14470614	      1.20596616	      5.72965583	    -13.08345733	      3.89347850	     66.56487331	    108.34974957	      1.63255104	     -9.99635992	    -12.15055091	     38.95761758	    103.30344684
      0.65000000	      1.92240761	      3.70246716	      0.20158186	      0.78824341	      0.92629894	     -0.24233319	     13.41561137	     -8.51789885	     -5.98386907	     76.59430813	      1.33682287	     -1.58422546	    -15.87260289	     -6.93886745	     21.36461951	      2.91867645	     -5.84121775	     32.97796287	      0.57557403	     13.68345034	     -3.71163586	     -6.93886745	     -9.52164356	    -19.37005073	      0.81530482	      5.56858762	    -12.89319957	      3.71520013	     65.92434408	    108.32696529	      2.66091438	     -9.95550754	    -12.00564840	     38.47881724	    103.23609066
      0.66000000	      2.00038448	      3.70705860	     -0.12708270	      0.79883175	      0.92707856	     -0.24255922	     15.36575373	     -8.33515672	     -5.18103226	     77.86392182	      1.35898180	     -0.71761556	    -15.18314952	     -6.94924695	     20.51742095	      2.91066489	     -6.02728339	     33.09399613	      0.57759920	     14.59727111	     -3.76587676	     -6.94924695	     -9.78374993	    -19.48086759	      0.49664559	      5.39962762	    -12.62781467	      3.48486326	     65.20790554	    108.33983255	      3.67543204	     -9.88939960	    -11.85027542	     37.99110668	    103.19802656
      0.67000000	      2.11005069	      3.63679022	     -0.43176961	      0.80939715	      0.92835331	     -0.24275484	     17.13805596	     -7.99989738	     -4.40162543	     78.63474423	      1.37243519	      0.64488209	    -13.34385174	     -6.97100421	     19.53082869	      2.86341402	     -6.14058636	     32.99626895	      0.57589353	     15.37495938	     -3.63884022	     -6.97100421	    -10.08836292	    -19.47044857	      0.24167753	      5.11883231	    -12.36029728	      3.06530494	     64.59891018	    108.50734365	      4.75646654	     -9.80181426	    -11.43901264	     37.41635279	    103.22959060
      0.68000000	      2.27907164	      3.53921588	     -0.73404947	      0.82001659	      0.93019352	     -0.24278211	     18.69478058	     -7.54226896	     -3.68669661	     78.84700301	      1.37613981	      1.09640292	    -12.35597317	     -6.98187993	     18.33685948	      2.84608564	     -6.12146452	     32.61828022	      0.56929639	     15.97805316	     -3.84795292	     -6.98187993	    -10.40795353	    -19.42784026	     -0.05554614	      4.93329336	    -12.00809541	      2.73741278	     63.75530039	    108.57074117	      5.69016221	     -9.66047624	    -11.37968098	     37.14492558	    103.26099964
      0.69000000	      2.44698474	      3.40481246	     -0.98414395	      0.83072452	      0.93240917	     -0.24270536	     20.07647111	     -7.02128273	     -3.07006788	     78.61106018	      1.37202183	      2.05281295	    -10.61466786	     -6.99982193	     17.02803500	      2.81711977	     -6.01336883	     31.99961052	      0.55849856	     16.37910615	     -3.96382616	     -6.99982193	    -10.68777325	    -19.31075226	     -0.34071968	      4.63036519	    -11.63314040	      2.30785912	     63.01897672	    108.73902878	      6.59670316	     -9.49647769	    -11.28158377	     36.86399918	    103.38701441
      0.70000000	      2.62095392	      3.23207969	     -1.21416434	      0.84147898	      0.93498306	     -0.24242412	     21.29697513	     -6.39146628	     -2.54148766	     77.89870362	      1.35958886	      2.32742698	     -9.69271579	     -7.00811014	     15.62581018	      2.74774714	     -5.89911741	     31.21528993	      0.54480959	     16.74822757	     -4.12027473	     -7.00811014	    -10.93386080	    -19.15138561	     -0.63472439	      4.36820722	    -11.21780888	      1.94688362	     62.14957717	    108.76168450	      7.36938983	     -9.33081619	    -11.29220024	     36.86917446	    103.46953573
      0.71000000	      2.76326089	      3.06852115	     -1.35983277	      0.85237755	      0.93778658	     -0.24213007	     22.37767815	     -5.81792655	     -2.15730330	     76.83115734	      1.34095666	      3.25197501	     -8.10668044	     -7.03040480	     14.15857415	      2.71843498	     -5.68411938	     30.20932446	      0.52725218	     16.85703497	     -4.22952110	     -7.03040480	    -11.11973490	    -18.97100140	     -0.93928380	      3.95216703	    -10.80286056	      1.51622508	     61.47280341	    108.93063629	      8.10394658	     -9.15336641	    -11.37599617	     36.92234353	    103.72495111
      0.72000000	      2.73271699	      2.82604669	     -1.47985592	      0.86336696	      0.94055369	     -0.24173302	     23.50313595	     -5.13020487	     -1.89236739	     75.35091835	      1.31512162	      3.38326706	     -7.71037030	     -7.03375420	     12.82767344	      2.57048475	     -5.52286855	     29.11767665	      0.50819933	     17.01606310	     -4.17966736	     -7.03375420	    -11.02182901	    -18.65510230	     -1.28676443	      3.54102165	    -10.42828937	      1.28748147	     60.79203930	    108.89712297	      8.60047558	     -8.98931619	    -11.37472517	     37.12783416	    103.78318557
      0.73000000	      2.84646952	      2.59349396	     -1.55601245	      0.87448805	      0.94372198	     -0.24130531	     24.29202674	     -4.50769946	     -1.74282340	     73.51786078	      1.28312873	      3.65854573	     -7.18874748	     -7.03796515	     11.22890505	      2.44137909	     -5.35893099	     27.80711223	      0.48532566	     17.09347664	     -4.05413620	     -7.03796515	    -11.06808730	    -18.33395849	     -1.64036096	      3.15841957	     -9.98408258	      0.91422229	     59.97082422	    108.84812198	      9.13482964	     -8.81960068	    -11.42521991	     37.39503669	    103.85365149
      0.74000000	      3.08759825	      2.33885866	     -1.61172069	      0.88569301	      0.94721046	     -0.24091593	     24.75674269	     -3.95730789	     -1.76137089	     71.31310046	      1.24464840	      4.04157578	     -6.65058852	     -7.04452844	      9.41192208	      2.29107018	     -5.20477836	     26.33735647	      0.45967359	     17.04965790	     -3.84361992	     -7.04452844	    -11.29093979	    -17.98909262	     -2.04556881	      2.81224853	     -9.54652787	      0.44250325	     59.18315414	    108.81095352	      9.59645763	     -8.64951287	    -11.53265313	     37.77377683	    103.95598317
      0.75000000	      3.02421901	      1.99634173	     -1.62585644	      0.89698189	      0.95017557	     -0.24058762	     25.45933669	     -3.34426256	     -1.88852066	     68.90246161	      1.20257482	      4.26262504	     -6.40602775	     -7.04933087	      7.94110174	      2.02415389	     -5.06075993	     24.88474746	      0.43432078	     17.00548226	     -3.60494740	     -7.04933087	    -11.10584098	    -17.47195224	     -2.43596554	      2.30882942	     -9.25272758	      0.16986670	     58.64943674	    108.79306906	      9.88855393	     -8.46988052	    -11.54561911	     38.23539764	    104.05145358
      0.76000000	      3.15656192	      1.61137468	     -1.59156938	      0.90841198	      0.95341322	     -0.24037492	     25.74313429	     -2.79702709	     -2.20724187	     66.11047973	      1.15384554	      4.30557048	     -6.40357427	     -7.05650445	      6.22081029	      1.70669082	     -4.97136081	     23.36733663	      0.40783696	     16.90461861	     -3.27590293	     -7.05650445	    -11.17109274	    -16.88335080	     -2.92448464	      1.87827364	     -8.94164821	     -0.18869143	     58.09641223	    108.78881501	     10.12192039	     -8.29073309	    -11.54898872	     38.83706740	    104.17649159
      0.77000000	      2.89315478	      1.19860684	     -1.55935997	      0.91986791	      0.95584964	     -0.24019438	     26.40944868	     -2.24091354	     -2.55634377	     63.20141013	      1.10307270	      4.31701756	     -6.39698714	     -7.06002427	      4.99808075	      1.33904069	     -4.87267786	     21.96040348	      0.38328135	     16.85133548	     -2.98593170	     -7.06002427	    -10.69748009	    -16.22134464	     -3.33896103	      1.26786502	     -8.77426860	     -0.38517215	     57.73798346	    108.78240736	     10.23166400	     -8.12315774	    -11.44191117	     39.37600001	    104.26630153
